<svg id="Component_8_1" data-name="Component 8 – 1" xmlns="http://www.w3.org/2000/svg" width="160.496" height="48.331" viewBox="0 0 160.496 48.331">
  <g id="logo-argos">
    <path id="Path_24" data-name="Path 24" d="M42.078,2.243A2.158,2.158,0,0,1,42.736.651a2.322,2.322,0,0,1,3.224,0,2.15,2.15,0,0,1,.659,1.592V5.789A19.142,19.142,0,0,1,52.26,1.628,16,16,0,0,1,59.438,0a2.621,2.621,0,0,1,1.867.651A2.1,2.1,0,0,1,62,2.243a2.1,2.1,0,0,1-.7,1.592,2.621,2.621,0,0,1-1.867.651A11.922,11.922,0,0,0,54.531,5.5a13.065,13.065,0,0,0-3.992,2.75,14.284,14.284,0,0,0-2.784,3.979,11.673,11.673,0,0,0-1.136,4.7V32.922a2.147,2.147,0,0,1-.659,1.59,2.322,2.322,0,0,1-3.224,0,2.154,2.154,0,0,1-.659-1.59Z" transform="translate(-2.814 0)" fill="#4b97ed"/>
    <path id="Path_25" data-name="Path 25" d="M94.505,17.308a13.207,13.207,0,0,0-1.21-4.884,12.979,12.979,0,0,0-2.854-3.979A13.562,13.562,0,0,0,86.3,5.768,13.242,13.242,0,0,0,76.23,5.8,13.279,13.279,0,0,0,72.055,8.59a12.908,12.908,0,0,0-2.82,4.161,12.674,12.674,0,0,0-1.025,5.064,12.419,12.419,0,0,0,1.025,5.029,13,13,0,0,0,2.82,4.124,13.262,13.262,0,0,0,4.175,2.786,13.243,13.243,0,0,0,10.069.036,13.879,13.879,0,0,0,4.142-2.641,12.646,12.646,0,0,0,2.854-3.907,12.9,12.9,0,0,0,1.21-4.848Zm0-14.253a2.15,2.15,0,0,1,.659-1.592,2.321,2.321,0,0,1,3.223,0,2.151,2.151,0,0,1,.659,1.592V30.983a16.337,16.337,0,0,1-1.391,6.692,18.246,18.246,0,0,1-3.772,5.535,17.586,17.586,0,0,1-12.562,5.137,17.634,17.634,0,0,1-12.453-4.919l-.074-.073a2.065,2.065,0,0,1-.659-1.519,2.195,2.195,0,0,1,.7-1.627,2.253,2.253,0,0,1,1.647-.688,2.093,2.093,0,0,1,1.54.578,13.519,13.519,0,0,0,4.175,2.823,12.787,12.787,0,0,0,5.128,1.012A13.148,13.148,0,0,0,93.48,36.012a12.426,12.426,0,0,0,1.025-5.029V29.391a17.627,17.627,0,0,1-13.184,5.787,17.926,17.926,0,0,1-6.849-1.3,17.66,17.66,0,0,1-5.6-3.618,16.836,16.836,0,0,1-3.809-5.5,17.13,17.13,0,0,1-1.392-6.946,16.9,16.9,0,0,1,1.354-6.765,17.215,17.215,0,0,1,3.735-5.5A18.3,18.3,0,0,1,74.4,1.788,19.52,19.52,0,0,1,81.466.233,17.43,17.43,0,0,1,88.646,1.9a18.551,18.551,0,0,1,5.859,4.341Z" transform="translate(-4.258 -0.016)" fill="#4b97ed"/>
    <path id="Path_26" data-name="Path 26" d="M122.534,4.714a12.857,12.857,0,0,0-5.091,1.013,13.27,13.27,0,0,0-4.175,2.786,12.938,12.938,0,0,0-2.82,4.159,12.668,12.668,0,0,0-1.026,5.065,12.4,12.4,0,0,0,1.026,5.029,13.03,13.03,0,0,0,2.82,4.123,13.205,13.205,0,0,0,4.175,2.786,12.844,12.844,0,0,0,5.091,1.013,13.147,13.147,0,0,0,12.159-7.922,12.449,12.449,0,0,0,1.026-5.029,12.715,12.715,0,0,0-1.026-5.065,12.983,12.983,0,0,0-2.82-4.159,13.281,13.281,0,0,0-9.339-3.8ZM122.68.155a16.372,16.372,0,0,1,6.7,1.411,18.653,18.653,0,0,1,5.6,3.8,18.308,18.308,0,0,1,3.845,5.572,16.44,16.44,0,0,1,1.427,6.8,16.379,16.379,0,0,1-1.391,6.692,18.166,18.166,0,0,1-3.772,5.534A17.573,17.573,0,0,1,122.534,35.1a17.886,17.886,0,0,1-6.849-1.3,17.668,17.668,0,0,1-5.6-3.615,16.9,16.9,0,0,1-3.809-5.5,17.117,17.117,0,0,1-1.392-6.945,16.909,16.909,0,0,1,1.355-6.765,17.193,17.193,0,0,1,3.737-5.5,18.222,18.222,0,0,1,5.639-3.763A19.53,19.53,0,0,1,122.68.155Z" transform="translate(-7.014 -0.011)" fill="#4b97ed"/>
    <path id="Path_27" data-name="Path 27" d="M145.158,9.195a8.255,8.255,0,0,1,1.025-4.269A8.331,8.331,0,0,1,148.894,2.1,11.582,11.582,0,0,1,152.7.549a19.593,19.593,0,0,1,4.249-.471,18.97,18.97,0,0,1,3.734.4,15.875,15.875,0,0,1,3.662,1.193,9.21,9.21,0,0,1,2.784,1.953,3.857,3.857,0,0,1,1.1,2.749,2.624,2.624,0,0,1-.551,1.556,2.063,2.063,0,0,1-1.794.76A2.305,2.305,0,0,1,163.764,7.1,4.263,4.263,0,0,0,161.2,5.035a12.443,12.443,0,0,0-4.247-.688,18.2,18.2,0,0,0-2.529.181,6.977,6.977,0,0,0-2.308.723,5.071,5.071,0,0,0-1.722,1.484,4.03,4.03,0,0,0-.7,2.46,2.76,2.76,0,0,0,.7,1.881,5.8,5.8,0,0,0,1.758,1.338,9.92,9.92,0,0,0,2.345.833q1.281.289,2.455.506a29.723,29.723,0,0,1,5.088,1.266,16.145,16.145,0,0,1,4.178,2.135,10.248,10.248,0,0,1,2.855,3.11,8.153,8.153,0,0,1,1.062,4.2,9.422,9.422,0,0,1-1.025,4.377,10.31,10.31,0,0,1-2.821,3.4,13.118,13.118,0,0,1-4.212,2.17,17.015,17.015,0,0,1-5.126.759,15.352,15.352,0,0,1-8.1-2.1,10.2,10.2,0,0,1-4.653-5.787,2.22,2.22,0,0,1-.072-.651,2.484,2.484,0,0,1,.621-1.664,2.071,2.071,0,0,1,1.65-.724,2.313,2.313,0,0,1,1.429.471,3.266,3.266,0,0,1,.988,1.267,6.757,6.757,0,0,0,3.258,3.51,10.472,10.472,0,0,0,4.874,1.192,11.057,11.057,0,0,0,6.116-1.627,5.165,5.165,0,0,0,2.526-4.594,4.815,4.815,0,0,0-2.491-4.052,14.513,14.513,0,0,0-6.151-2.171,20.589,20.589,0,0,1-8.536-2.858A6.941,6.941,0,0,1,145.158,9.195Z" transform="translate(-9.639 -0.006)" fill="#4b97ed"/>
    <path id="Path_28" data-name="Path 28" d="M17.75,26.951a9.2,9.2,0,1,1,9.318-9.2A9.26,9.26,0,0,1,17.75,26.951Zm16.2-16.015a18.24,18.24,0,0,0-3.846-5.572,18.6,18.6,0,0,0-5.6-3.8A16.378,16.378,0,0,0,17.8.155,18.012,18.012,0,0,0,10.732,1.53,17.465,17.465,0,0,0,0,17.737a17.153,17.153,0,0,0,1.392,6.946,16.956,16.956,0,0,0,3.809,5.5A17.7,17.7,0,0,0,10.8,33.8a17.984,17.984,0,0,0,6.851,1.448H33.11a2.2,2.2,0,0,0,1.612-.651A2.149,2.149,0,0,0,35.381,33V17.737A16.405,16.405,0,0,0,33.952,10.937Z" transform="translate(0 -0.011)" fill="#4b97ed"/>
    <path id="Path_29" data-name="Path 29" d="M18.688,14.082a4.6,4.6,0,1,0,4.658,4.6A4.626,4.626,0,0,0,18.688,14.082Z" transform="translate(-0.938 -0.942)" fill="#e8b731"/>
  </g>
</svg>
