<svg id="frame_icon" data-name="frame icon" xmlns="http://www.w3.org/2000/svg" width="26.283" height="21.819" viewBox="0 0 26.283 21.819">
  <path id="Path_138" data-name="Path 138" d="M37.619,313.807a10.24,10.24,0,0,1,4.438,3.452,9.221,9.221,0,0,1,0,10.319,10.24,10.24,0,0,1-4.438,3.452,16.649,16.649,0,0,1-6.614,1.228,16.65,16.65,0,0,1-6.614-1.228,10.094,10.094,0,0,1-4.416-3.452,9.324,9.324,0,0,1,0-10.319,10.094,10.094,0,0,1,4.416-3.452,16.649,16.649,0,0,1,6.614-1.227A16.648,16.648,0,0,1,37.619,313.807Z" transform="translate(-17.352 -312.58)" fill="#603474"/>
  <path id="Path_139" data-name="Path 139" d="M20.139,356.5a2.352,2.352,0,0,1,1.019.793,2.116,2.116,0,0,1,0,2.368,2.347,2.347,0,0,1-1.019.792,4.222,4.222,0,0,1-3.036,0,2.313,2.313,0,0,1-1.014-.792,2.141,2.141,0,0,1,0-2.368A2.318,2.318,0,0,1,17.1,356.5a4.233,4.233,0,0,1,3.036,0Z" transform="translate(-15.732 -338.913)" fill="#603474"/>
</svg>
