<svg id="instagram" xmlns="http://www.w3.org/2000/svg" width="22.985" height="22.989" viewBox="0 0 22.985 22.989">
  <path id="Path_125" data-name="Path 125" d="M23.375,6.759a8.4,8.4,0,0,0-.534-2.789A5.889,5.889,0,0,0,19.477.606,8.422,8.422,0,0,0,16.688.072C15.458.014,15.067,0,11.946,0S8.434.014,7.208.067A8.4,8.4,0,0,0,4.419.6,5.609,5.609,0,0,0,2.38,1.931,5.66,5.66,0,0,0,1.055,3.966,8.423,8.423,0,0,0,.521,6.754C.463,7.985.449,8.376.449,11.5s.014,3.512.067,4.738a8.4,8.4,0,0,0,.535,2.789,5.888,5.888,0,0,0,3.364,3.364,8.423,8.423,0,0,0,2.789.534c1.226.054,1.617.067,4.738.067s3.512-.013,4.738-.067a8.4,8.4,0,0,0,2.789-.534,5.88,5.88,0,0,0,3.364-3.364,8.428,8.428,0,0,0,.534-2.789c.054-1.226.067-1.617.067-4.738S23.429,7.985,23.375,6.759Zm-2.07,9.386a6.3,6.3,0,0,1-.4,2.133,3.813,3.813,0,0,1-2.183,2.183,6.323,6.323,0,0,1-2.133.4c-1.213.054-1.576.067-4.644.067s-3.436-.013-4.644-.067a6.3,6.3,0,0,1-2.133-.4,3.537,3.537,0,0,1-1.32-.858A3.574,3.574,0,0,1,3,18.283a6.324,6.324,0,0,1-.4-2.133c-.054-1.213-.067-1.576-.067-4.644S2.546,8.07,2.6,6.862A6.3,6.3,0,0,1,3,4.729a3.494,3.494,0,0,1,.862-1.32,3.569,3.569,0,0,1,1.32-.858,6.328,6.328,0,0,1,2.133-.4c1.213-.054,1.576-.067,4.644-.067s3.436.014,4.644.067a6.3,6.3,0,0,1,2.133.4,3.535,3.535,0,0,1,1.32.858,3.573,3.573,0,0,1,.858,1.32,6.327,6.327,0,0,1,.4,2.133c.054,1.213.067,1.576.067,4.644S21.359,14.932,21.305,16.145Zm0,0" transform="translate(-0.449)" fill="#5f3473"/>
  <path id="Path_126" data-name="Path 126" d="M130.855,124.5a5.906,5.906,0,1,0,5.906,5.906A5.907,5.907,0,0,0,130.855,124.5Zm0,9.736a3.831,3.831,0,1,1,3.831-3.831A3.831,3.831,0,0,1,130.855,134.236Zm0,0" transform="translate(-119.358 -118.909)" fill="#5f3473"/>
  <path id="Path_127" data-name="Path 127" d="M365.207,89.98a1.379,1.379,0,1,1-1.379-1.379A1.379,1.379,0,0,1,365.207,89.98Zm0,0" transform="translate(-346.192 -84.623)" fill="#5f3473"/>
</svg>
