<svg id="Component_17_1" data-name="Component 17 – 1" xmlns="http://www.w3.org/2000/svg" width="66.284" height="55.027" viewBox="0 0 66.284 55.027">
  <path id="Path_140" data-name="Path 140" d="M66.843,315.675a25.824,25.824,0,0,1,11.192,8.705,23.255,23.255,0,0,1,0,26.024,25.824,25.824,0,0,1-11.192,8.705,41.985,41.985,0,0,1-16.68,3.1,41.988,41.988,0,0,1-16.68-3.1A25.455,25.455,0,0,1,22.345,350.4a23.516,23.516,0,0,1,0-26.024,25.455,25.455,0,0,1,11.138-8.705,41.988,41.988,0,0,1,16.68-3.1A41.985,41.985,0,0,1,66.843,315.675Z" transform="translate(-15.732 -312.58)" fill="#603474"/>
  <path id="Path_141" data-name="Path 141" d="M26.847,356.926a5.931,5.931,0,0,1,2.569,2,5.336,5.336,0,0,1,0,5.973,5.92,5.92,0,0,1-2.569,2,9.626,9.626,0,0,1-3.829.712,9.616,9.616,0,0,1-3.827-.712,5.834,5.834,0,0,1-2.558-2,5.4,5.4,0,0,1,0-5.973,5.845,5.845,0,0,1,2.558-2,9.635,9.635,0,0,1,3.827-.71A9.645,9.645,0,0,1,26.847,356.926Z" transform="translate(-15.732 -312.58)" fill="#603474"/>
</svg>
