<svg id="pin" xmlns="http://www.w3.org/2000/svg" width="28.932" height="42.076" viewBox="0 0 28.932 42.076">
  <path id="Path_137" data-name="Path 137" d="M106.89,7.2A14.278,14.278,0,0,0,94.757,0c-.215,0-.432,0-.647,0A14.279,14.279,0,0,0,81.977,7.2a14.648,14.648,0,0,0-.191,14.474l10.434,19.1.014.025a2.536,2.536,0,0,0,4.4,0l.014-.025,10.434-19.1A14.649,14.649,0,0,0,106.89,7.2ZM94.434,19.065a5.917,5.917,0,1,1,5.917-5.917A5.924,5.924,0,0,1,94.434,19.065Z" transform="translate(-79.968 0)" fill="#f6f1eb"/>
</svg>
