<svg id="telephone-handle-silhouette" xmlns="http://www.w3.org/2000/svg" width="39.003" height="39.005" viewBox="0 0 39.003 39.005">
  <path id="Path_136" data-name="Path 136" d="M38.93,30.222q-.165-.5-2.105-1.468-.525-.305-1.5-.831t-1.759-.97q-.791-.443-1.482-.858-.111-.083-.692-.485a7.786,7.786,0,0,0-.984-.6,1.814,1.814,0,0,0-.79-.194,2.3,2.3,0,0,0-1.384.789,13.488,13.488,0,0,0-1.523,1.718,16.7,16.7,0,0,1-1.468,1.717,2.111,2.111,0,0,1-1.274.79,1.884,1.884,0,0,1-.624-.138c-.249-.092-.438-.171-.568-.235s-.35-.194-.664-.388-.49-.3-.527-.319a29.111,29.111,0,0,1-6.51-4.82,29.1,29.1,0,0,1-4.82-6.51q-.028-.055-.319-.526t-.388-.665a6,6,0,0,1-.235-.568,1.874,1.874,0,0,1-.138-.623,2.111,2.111,0,0,1,.79-1.274A16.684,16.684,0,0,1,11.686,12.3,13.482,13.482,0,0,0,13.4,10.776a2.3,2.3,0,0,0,.789-1.385A1.809,1.809,0,0,0,14,8.6a7.7,7.7,0,0,0-.6-.984q-.4-.582-.485-.693-.415-.692-.858-1.482t-.97-1.759q-.526-.969-.831-1.5Q9.29.25,8.792.083A1.551,1.551,0,0,0,8.21,0,9.126,9.126,0,0,0,6.257.277a10.97,10.97,0,0,0-1.9.582Q2.974,1.44,1.423,4.238A10.74,10.74,0,0,0,.01,9.39a10.7,10.7,0,0,0,.1,1.454,11.952,11.952,0,0,0,.346,1.593q.249.886.4,1.316t.568,1.537q.415,1.108.5,1.357A25.092,25.092,0,0,0,4.22,21.5a41.074,41.074,0,0,0,5.969,7.328,41.093,41.093,0,0,0,7.327,5.97,25.13,25.13,0,0,0,4.848,2.3q.249.083,1.357.5t1.537.568q.429.153,1.316.4a12.058,12.058,0,0,0,1.593.347,10.276,10.276,0,0,0,6.607-1.316q2.8-1.551,3.379-2.937a10.91,10.91,0,0,0,.582-1.9,9.107,9.107,0,0,0,.277-1.953A1.545,1.545,0,0,0,38.93,30.222Z" transform="translate(-0.01)" fill="#f6f1eb"/>
</svg>
