<svg id="email" xmlns="http://www.w3.org/2000/svg" width="39.263" height="26.994" viewBox="0 0 39.263 26.994">
  <g id="Group_28" data-name="Group 28" transform="translate(26.026 4.977)">
    <g id="Group_27" data-name="Group 27">
      <path id="Path_132" data-name="Path 132" d="M339.392,153.617l13.237,8.368V144.9Z" transform="translate(-339.392 -144.896)" fill="#f6f1eb"/>
    </g>
  </g>
  <g id="Group_30" data-name="Group 30" transform="translate(0 4.977)">
    <g id="Group_29" data-name="Group 29">
      <path id="Path_133" data-name="Path 133" d="M0,144.9v17.089l13.237-8.368Z" transform="translate(0 -144.896)" fill="#f6f1eb"/>
    </g>
  </g>
  <g id="Group_32" data-name="Group 32" transform="translate(0.073)">
    <g id="Group_31" data-name="Group 31" transform="translate(0 0)">
      <path id="Path_134" data-name="Path 134" d="M37.7,80H3.34A2.423,2.423,0,0,0,.96,82.088L20.518,94.974,40.076,82.088A2.423,2.423,0,0,0,37.7,80Z" transform="translate(-0.96 -80)" fill="#f6f1eb"/>
    </g>
  </g>
  <g id="Group_34" data-name="Group 34" transform="translate(0.078 15.178)">
    <g id="Group_33" data-name="Group 33" transform="translate(0 0)">
      <path id="Path_135" data-name="Path 135" d="M24.724,277.922l-3.472,2.287a1.232,1.232,0,0,1-1.35,0l-3.472-2.29L1.024,287.665A2.42,2.42,0,0,0,3.4,289.736H37.755a2.42,2.42,0,0,0,2.375-2.071Z" transform="translate(-1.024 -277.92)" fill="#f6f1eb"/>
    </g>
  </g>
</svg>
