<svg width="18" height="12" viewBox="0 0 18 12" fill="none" xmlns="http://www.w3.org/2000/svg">
<path d="M0.666666 10.7165C0.978937 11.0269 1.40136 11.2012 1.84167 11.2012C2.28198 11.2012 2.7044 11.0269 3.01667 10.7165L9 4.81652L14.9 10.7165C15.2123 11.0269 15.6347 11.2012 16.075 11.2012C16.5153 11.2012 16.9377 11.0269 17.25 10.7165C17.4062 10.5616 17.5302 10.3772 17.6148 10.1741C17.6994 9.97105 17.743 9.7532 17.743 9.53318C17.743 9.31316 17.6994 9.09532 17.6148 8.89222C17.5302 8.68912 17.4062 8.50479 17.25 8.34985L10.1833 1.28318C10.0284 1.12697 9.84406 1.00298 9.64096 0.918364C9.43786 0.83375 9.22002 0.790185 9 0.790185C8.77998 0.790185 8.56214 0.83375 8.35904 0.918364C8.15594 1.00298 7.97161 1.12697 7.81667 1.28318L0.666666 8.34985C0.510453 8.50479 0.386463 8.68912 0.301848 8.89222C0.217234 9.09532 0.173668 9.31316 0.173668 9.53318C0.173668 9.7532 0.217234 9.97105 0.301848 10.1741C0.386463 10.3772 0.510452 10.5616 0.666666 10.7165Z" fill="white"/>
</svg>
