<svg xmlns="http://www.w3.org/2000/svg" height="24" width="24" fill="#5e3473"><path d="M12 2c-2.72 0-3.06.01-4.12.06-1.08.05-1.8.22-2.43.47-.667.25-1.27.642-1.77 1.15a4.9 4.9 0 00-1.16 1.77 7.36 7.36 0 00-.46 2.43C2.01 8.94 2 9.28 2 12s.01 3.06.06 4.12c.05 1.07.22 1.8.47 2.43.25.667.642 1.27 1.15 1.77a4.9 4.9 0 001.77 1.16c.63.24 1.36.41 2.43.46 1.06.05 1.4.06 4.12.06s3.06-.01 4.12-.06a7.39 7.39 0 002.43-.47 4.881 4.881 0 001.77-1.15 4.9 4.9 0 001.16-1.77c.24-.63.41-1.36.46-2.43.05-1.06.06-1.4.06-4.12s-.01-3.06-.06-4.12a7.39 7.39 0 00-.47-2.43 4.9 4.9 0 00-1.15-1.77 4.9 4.9 0 00-1.77-1.16 7.36 7.36 0 00-2.43-.46C15.06 2.01 14.72 2 12 2zm0 1.8c2.67 0 2.99.01 4.04.06.98.04 1.5.2 1.86.34.46.19.8.4 1.15.75.35.35.56.69.74 1.15.14.35.3.88.35 1.86.05 1.05.06 1.37.06 4.04s-.01 2.99-.06 4.04c-.04.98-.2 1.5-.34 1.86-.16.433-.417.828-.75 1.15a3.117 3.117 0 01-1.15.74c-.35.14-.88.3-1.86.35a70.996 70.996 0 01-4.04.06c-2.67 0-2.99-.01-4.04-.06a5.57 5.57 0 01-1.86-.34 3.1 3.1 0 01-1.15-.75 3.1 3.1 0 01-.75-1.15c-.13-.35-.3-.88-.34-1.86A70.397 70.397 0 013.8 12c0-2.67.01-2.99.06-4.04.04-.98.2-1.5.34-1.86.19-.47.4-.8.75-1.15.35-.35.68-.56 1.15-.75.35-.13.88-.3 1.86-.34A70.375 70.375 0 0112 3.8zm5.34 1.66c-1.6 0-1.6 2.4 0 2.4s1.6-2.4 0-2.4zM12 6.86c-6.847 0-6.847 10.27 0 10.27a5.135 5.135 0 100-10.27zm0 1.8c4.447 0 4.447 6.67 0 6.67-4.44 0-4.44-6.66 0-6.66z"/></svg>