<svg xmlns="http://www.w3.org/2000/svg" height="24" width="24" fill="#5e3473"><path d="M3.105 2C2.495 2 2 2.494 2 3.104v17.792C2 21.506 2.494 22 3.104 22h17.792c.61 0 1.104-.494 1.104-1.104V3.104c0-.61-.491-1.102-1.1-1.104H3.105zm4.6 4.373a1.346 1.346 0 11-.001 2.693 1.346 1.346 0 01.001-2.693zm7.07 3.527c2.35 0 2.784 1.546 2.784 3.557v4.096h-2.32v-3.631c0-.866-.017-1.98-1.208-1.98-1.207 0-1.39.943-1.39 1.917v3.694h-2.319v-7.467h2.225v1.02h.031c.31-.588 1.068-1.206 2.197-1.206zm-8.232.186h2.324v7.467H6.543v-7.467z" stroke-width="6.4"/></svg>