<svg xmlns="http://www.w3.org/2000/svg" width="20" height="16.604" viewBox="0 0 20 16.604">
  <g id="Grupo_66" data-name="Grupo 66" transform="translate(-15.732 -312.58)">
    <path id="Caminho_140" data-name="Caminho 140" d="M33.029,313.514a7.792,7.792,0,0,1,3.377,2.627,7.017,7.017,0,0,1,0,7.852,7.792,7.792,0,0,1-3.377,2.627,12.669,12.669,0,0,1-5.033.934,12.67,12.67,0,0,1-5.033-.934,7.681,7.681,0,0,1-3.361-2.627,7.1,7.1,0,0,1,0-7.852,7.681,7.681,0,0,1,3.361-2.627A12.67,12.67,0,0,1,28,312.58,12.669,12.669,0,0,1,33.029,313.514Z" transform="translate(-1.875)" fill="#603474"/>
    <path id="Caminho_141" data-name="Caminho 141" d="M19.086,356.43a1.79,1.79,0,0,1,.775.6,1.61,1.61,0,0,1,0,1.8,1.786,1.786,0,0,1-.775.6,3.212,3.212,0,0,1-2.31,0,1.76,1.76,0,0,1-.772-.6,1.629,1.629,0,0,1,0-1.8,1.764,1.764,0,0,1,.772-.6,3.221,3.221,0,0,1,2.31,0Z" transform="translate(0 -30.469)" fill="#603474"/>
  </g>
</svg>
