<svg width="29" height="24" viewBox="0 0 29 24" fill="none" xmlns="http://www.w3.org/2000/svg">
<path d="M21.6436 1.90546C23.6727 2.80728 25.2509 4.04728 26.3781 5.62546C27.5054 7.20364 28.0691 9.00728 28.0691 11.1491C28.0691 13.2909 27.5054 15.0945 26.3781 16.6727C25.2509 18.2509 23.6727 19.4909 21.6436 20.3927C19.6145 21.2945 17.2472 21.7455 14.5418 21.7455C11.8363 21.7455 9.46908 21.2945 7.43999 20.3927C5.4109 19.4909 3.83271 18.2509 2.70543 16.6727C1.57816 15.0945 1.01453 13.2909 1.01453 11.1491C1.01453 9.12 1.57816 7.20364 2.70543 5.62546C3.83271 4.04728 5.4109 2.80728 7.43999 1.90546C9.46908 1.00364 11.8363 0.552734 14.5418 0.552734C17.2472 0.665462 19.6145 1.00364 21.6436 1.90546Z" fill="white"/>
<path d="M4.62182 19.3782C5.07273 19.6036 5.41091 19.8291 5.7491 20.28C5.97455 20.6182 6.08726 21.0691 6.08726 21.52C6.08726 21.9709 5.97455 22.4218 5.7491 22.76C5.52364 23.0982 5.07273 23.4363 4.62182 23.6618C4.17091 23.8872 3.60727 24 3.04363 24C2.48 24 1.91637 23.8872 1.46546 23.6618C1.01455 23.4363 0.676367 23.2109 0.338185 22.76C0.112731 22.4218 0 21.9709 0 21.52C0 21.0691 0.112731 20.6182 0.338185 20.28C0.56364 19.9418 0.901821 19.6036 1.46546 19.3782C1.91637 19.1527 2.48 19.04 3.04363 19.04C3.60727 19.1527 4.17091 19.2654 4.62182 19.3782Z" fill="white"/>
</svg>
