<svg xmlns="http://www.w3.org/2000/svg" width="45.25" height="67.875" viewBox="0 0 45.25 67.875">
  <g id="app" transform="translate(-85.333)">
    <g id="Grupo_12" data-name="Grupo 12" transform="translate(85.333)">
      <g id="Grupo_11" data-name="Grupo 11">
        <path id="Caminho_62" data-name="Caminho 62" d="M150.747,139.311h8.484a1.413,1.413,0,0,0,1.414-1.414v-8.484A1.413,1.413,0,0,0,159.231,128h-8.484a1.413,1.413,0,0,0-1.414,1.414V137.9A1.413,1.413,0,0,0,150.747,139.311Z" transform="translate(-140.849 -111.03)" fill="#f7f7f7"/>
        <path id="Caminho_63" data-name="Caminho 63" d="M277.333,137.9a1.413,1.413,0,0,0,1.414,1.414h8.484a1.413,1.413,0,0,0,1.414-1.414v-8.484A1.413,1.413,0,0,0,287.231,128h-8.484a1.413,1.413,0,0,0-1.414,1.414Z" transform="translate(-251.88 -111.031)" fill="#f7f7f7"/>
        <path id="Caminho_64" data-name="Caminho 64" d="M150.747,267.312h8.484a1.413,1.413,0,0,0,1.414-1.414v-8.484A1.413,1.413,0,0,0,159.231,256h-8.484a1.413,1.413,0,0,0-1.414,1.414V265.9A1.413,1.413,0,0,0,150.747,267.312Z" transform="translate(-140.849 -222.062)" fill="#f7f7f7"/>
        <path id="Caminho_65" data-name="Caminho 65" d="M287.231,256h-8.484a1.413,1.413,0,0,0-1.414,1.414V265.9a1.413,1.413,0,0,0,1.414,1.414h8.484a1.413,1.413,0,0,0,1.414-1.414v-8.484A1.413,1.413,0,0,0,287.231,256Z" transform="translate(-251.88 -222.063)" fill="#f7f7f7"/>
        <path id="Caminho_66" data-name="Caminho 66" d="M236.08,66.827h2.828a1.414,1.414,0,0,0,0-2.828H236.08a1.414,1.414,0,1,0,0,2.828Z" transform="translate(-214.869 -55.515)" fill="#f7f7f7"/>
        <path id="Caminho_67" data-name="Caminho 67" d="M124.927,0H90.989a5.662,5.662,0,0,0-5.656,5.656V62.218a5.662,5.662,0,0,0,5.656,5.656h33.937a5.662,5.662,0,0,0,5.656-5.656V5.656A5.662,5.662,0,0,0,124.927,0ZM112.2,62.218h-8.484a1.414,1.414,0,1,1,0-2.828H112.2a1.414,1.414,0,1,1,0,2.828Zm12.726-8.484H90.989V5.656h33.937Z" transform="translate(-85.333)" fill="#f7f7f7"/>
        <circle id="Elipse_2" data-name="Elipse 2" cx="1.414" cy="1.414" r="1.414" transform="translate(33.937 8.484)" fill="#f7f7f7"/>
      </g>
    </g>
  </g>
</svg>
