<svg xmlns="http://www.w3.org/2000/svg" width="40.333" height="34.214" viewBox="0 0 40.333 34.214">
  <g id="group" transform="translate(0 -38.84)">
    <g id="Grupo_14" data-name="Grupo 14" transform="translate(31.392 57.311)">
      <g id="Grupo_13" data-name="Grupo 13" transform="translate(0 0)">
        <path id="Caminho_70" data-name="Caminho 70" d="M401.613,273.32h-3.119a8.114,8.114,0,0,1,.492,2.789V287.9a3.476,3.476,0,0,1-.2,1.164h5.157a3.5,3.5,0,0,0,3.493-3.493v-6.427A5.829,5.829,0,0,0,401.613,273.32Z" transform="translate(-398.494 -273.32)" fill="#f7f7f7"/>
      </g>
    </g>
    <g id="Grupo_16" data-name="Grupo 16" transform="translate(0 57.312)">
      <g id="Grupo_15" data-name="Grupo 15">
        <path id="Caminho_71" data-name="Caminho 71" d="M8.45,276.11a8.113,8.113,0,0,1,.492-2.789H5.822A5.829,5.829,0,0,0,0,279.143v6.427a3.5,3.5,0,0,0,3.493,3.493H8.65a3.477,3.477,0,0,1-.2-1.165Z" transform="translate(0 -273.321)" fill="#f7f7f7"/>
      </g>
    </g>
    <g id="Grupo_18" data-name="Grupo 18" transform="translate(10.779 54.278)">
      <g id="Grupo_17" data-name="Grupo 17" transform="translate(0 0)">
        <path id="Caminho_72" data-name="Caminho 72" d="M149.782,234.815h-7.131a5.829,5.829,0,0,0-5.822,5.822v11.789a1.165,1.165,0,0,0,1.164,1.164H154.44a1.164,1.164,0,0,0,1.164-1.164V240.637A5.829,5.829,0,0,0,149.782,234.815Z" transform="translate(-136.829 -234.815)" fill="#f7f7f7"/>
      </g>
    </g>
    <g id="Grupo_20" data-name="Grupo 20" transform="translate(13.165 38.84)">
      <g id="Grupo_19" data-name="Grupo 19" transform="translate(0 0)">
        <path id="Caminho_73" data-name="Caminho 73" d="M174.116,38.84a7,7,0,1,0,7,7A7.01,7.01,0,0,0,174.116,38.84Z" transform="translate(-167.114 -38.84)" fill="#f7f7f7"/>
      </g>
    </g>
    <g id="Grupo_22" data-name="Grupo 22" transform="translate(2.635 45.367)">
      <g id="Grupo_21" data-name="Grupo 21" transform="translate(0 0)">
        <path id="Caminho_74" data-name="Caminho 74" d="M38.68,121.689a5.234,5.234,0,1,0,5.237,5.237A5.243,5.243,0,0,0,38.68,121.689Z" transform="translate(-33.443 -121.689)" fill="#f7f7f7"/>
      </g>
    </g>
    <g id="Grupo_24" data-name="Grupo 24" transform="translate(27.226 45.367)">
      <g id="Grupo_23" data-name="Grupo 23" transform="translate(0 0)">
        <path id="Caminho_75" data-name="Caminho 75" d="M350.844,121.689a5.237,5.237,0,1,0,5.237,5.237A5.243,5.243,0,0,0,350.844,121.689Z" transform="translate(-345.607 -121.689)" fill="#f7f7f7"/>
      </g>
    </g>
  </g>
</svg>
