<svg xmlns="http://www.w3.org/2000/svg" width="414" height="208.78" viewBox="0 0 414 208.78">
  <path id="uniao_01" data-name="uniao_01" d="M40.539,208.78a40,40,0,1,1,22.222-6.739,40,40,0,0,1-22.222,6.739Zm-5.705-53.573a14.829,14.829,0,0,0-9.126,13.818,15.133,15.133,0,0,0,.075,1.517,14.836,14.836,0,0,0,29.515,0q.074-.749.075-1.517a14.831,14.831,0,0,0-20.538-13.818Zm186.02,40.027a15.751,15.751,0,0,0,5.242-2.909,18,18,0,0,0,5.042-6.633,4.1,4.1,0,0,0,.475-1.379,4.787,4.787,0,0,0-.408-1.462l-12.19-30.106h6.538l7.216,19c.751,2.167,1.57,5.349,2.112,6.285h.136c.614-.936,1.294-4.044,2.11-6.428l6.538-18.855H250l-8.988,23.243c-4.29,11.283-7.217,16.858-11.3,20.391a16.4,16.4,0,0,1-7.222,3.852Zm31.965-11.562,1.491-4.557a15.755,15.755,0,0,0,7.9,2.384c4.356,0,6.406-2.174,6.406-4.892,0-2.856-1.7-4.42-6.128-6.05-5.925-2.107-8.715-5.369-8.715-9.31,0-5.3,4.288-9.651,11.369-9.651a16.461,16.461,0,0,1,8.1,2.039l-1.5,4.35a12.828,12.828,0,0,0-6.74-1.9c-3.542,0-5.518,2.038-5.518,4.486,0,2.719,1.976,3.94,6.266,5.572,5.72,2.176,8.647,5.027,8.647,9.923,0,5.776-4.495,9.923-12.325,9.923h-.22A18.8,18.8,0,0,1,252.819,183.673Zm-58.565,0,1.495-4.557a15.734,15.734,0,0,0,7.9,2.384c4.358,0,6.405-2.174,6.405-4.892,0-2.856-1.7-4.42-6.127-6.05-5.925-2.107-8.716-5.369-8.716-9.31,0-5.3,4.29-9.651,11.372-9.651a16.47,16.47,0,0,1,8.1,2.039l-1.5,4.35a12.831,12.831,0,0,0-6.741-1.9c-3.542,0-5.516,2.038-5.516,4.486,0,2.719,1.975,3.94,6.265,5.572,5.719,2.176,8.645,5.027,8.645,9.923,0,5.776-4.494,9.923-12.323,9.923h-.229A18.786,18.786,0,0,1,194.254,183.673Zm122.449,2.31c-10.164,0-16.244-6.76-16.244-16.706s5.87-17.812,15.494-17.812c10.783,0,13.651,9.408,13.651,15.471a13.125,13.125,0,0,1-.205,2.669l-23.211,0s.007.278.007.357c.062,1.224.6,7.078,5.042,9.8a11.185,11.185,0,0,0,3.257,1.227c2.805.532,6.559.124,11.586-1.916l1.5,4.551a25.151,25.151,0,0,1-10.657,2.369Zm-10.442-20.126H323.8c.068-3.748-1.57-9.741-8.328-9.741C309.4,156.117,306.739,162.11,306.262,165.857Zm85.155,17.81,1.5-4.551a15.744,15.744,0,0,0,7.9,2.384c4.354,0,6.4-2.174,6.4-4.892,0-2.856-1.7-4.419-6.125-6.05-5.931-2.112-8.723-5.375-8.723-9.315,0-5.3,4.288-9.651,11.371-9.651a16.465,16.465,0,0,1,8.1,2.039l-1.5,4.35a12.825,12.825,0,0,0-6.739-1.9c-3.542,0-5.519,2.038-5.519,4.486,0,2.719,1.976,3.94,6.266,5.572,5.714,2.176,8.647,5.034,8.647,9.923,0,5.776-4.5,9.923-12.323,9.923h-.22A18.806,18.806,0,0,1,391.417,183.668Zm-242.8,2.312c-5.177,0-11.372-2.853-11.372-14.412V152.341h5.991v18.212c0,6.252,1.908,10.464,7.355,10.464a8.663,8.663,0,0,0,7.9-5.437,8.767,8.767,0,0,0,.544-3.056V152.341h5.99v23.92c0,3.4.068,6.394.273,8.97h-5.31l-.34-5.368h-.138a12.4,12.4,0,0,1-10.694,6.117ZM97.679,169.058c0-11.01,7.216-17.464,16.34-17.464,9.466,0,15.867,6.863,15.867,16.921,0,12.163-8.443,17.464-16.411,17.464C104.557,185.979,97.679,179.456,97.679,169.058Zm6.06-.2c0,7.2,4.154,12.641,10.01,12.641,5.719,0,10.01-5.369,10.01-12.775,0-5.575-2.795-12.642-9.875-12.642S103.739,162.6,103.739,168.854Zm77.023,16.668a7.846,7.846,0,0,1-3.536-2.132c-1.7-1.765-2.671-4.685-2.671-8.56V145.139l6.57-4.465v12.074h8.446v3.743h-8.446v18.685c0,4.017,1.429,5.45,3.5,5.483a7.9,7.9,0,0,0,3.729-1.481l1.43,4.546a9.745,9.745,0,0,1-9.026,1.8Zm107.009,0a7.86,7.86,0,0,1-3.543-2.131c-1.7-1.766-2.686-4.686-2.686-8.561V145.139l6.567-4.465v12.074h8.448v3.743h-8.448v18.685c0,4.017,1.448,5.45,3.52,5.483a7.989,7.989,0,0,0,3.747-1.481l1.425,4.546a9.758,9.758,0,0,1-9.029,1.8Zm90.447-.289V166.611c0-6.321-2.315-10.125-7.149-10.125a7.758,7.758,0,0,0-7.083,5.436,9.9,9.9,0,0,0-.475,2.992v20.319h-5.855V165.524c0-5.234-2.315-9.039-6.878-9.039-3.745,0-6.468,2.991-7.422,5.98a8.2,8.2,0,0,0-.475,2.926v19.84h-5.857l0-23.99c0-3.4-.068-6.187-.27-8.9h5.239l.273,5.3h.2a11.364,11.364,0,0,1,10.35-6.048,9.74,9.74,0,0,1,9.329,6.593h.135a13.591,13.591,0,0,1,3.677-4.283,11.283,11.283,0,0,1,7.286-2.31c4.359,0,10.825,2.856,10.825,14.273v19.368ZM190.885,118.447v-9.863h-5.908v-6.738h5.908V92.007h6.983v9.839h5.908v6.738h-5.908v9.863Zm95.236-58.8A4.833,4.833,0,0,1,284,58a4.468,4.468,0,0,1,0-4.946,4.828,4.828,0,0,1,2.117-1.654,8.829,8.829,0,0,1,6.34,0,4.905,4.905,0,0,1,2.127,1.654,4.419,4.419,0,0,1,0,4.946,4.91,4.91,0,0,1-2.127,1.653,8.829,8.829,0,0,1-6.34,0Zm112.1-3.884L389.65,40.433l-4.133,4.284V55.764H372.14V0h13.377V28.859l13-13.753H413.7L398.82,30.812,414,55.764Zm-56.518,0V14.675h13.27v7.468a14.536,14.536,0,0,1,5.4-5.368,15.177,15.177,0,0,1,7.567-1.864V27.063a20.006,20.006,0,0,0-2.013-.074,12.282,12.282,0,0,0-7.6,2.2,8.434,8.434,0,0,0-3.354,6V55.764ZM297.957,53.2a21.068,21.068,0,0,1-9.222-7.207,18.364,18.364,0,0,1-3.254-10.812,18.246,18.246,0,0,1,3.254-10.737,21.06,21.06,0,0,1,9.222-7.206,38.487,38.487,0,0,1,27.621,0,21.385,21.385,0,0,1,9.267,7.206,18.078,18.078,0,0,1,3.3,10.737,18.194,18.194,0,0,1-3.3,10.812,21.394,21.394,0,0,1-9.267,7.207,38.487,38.487,0,0,1-27.621,0Zm-38.924,2.563L251.27,30.4l-7.839,25.367H230.166L215.317,14.675h13.642l8.141,27.8,7.99-27.8H257.9l8.066,27.8,8.14-27.8h13.116L272.3,55.764ZM186.157,53.23a17.544,17.544,0,0,1-7.353-7.156,21.878,21.878,0,0,1-2.55-10.735,22.422,22.422,0,0,1,2.587-10.922,17.943,17.943,0,0,1,7.316-7.305,22.539,22.539,0,0,1,10.938-2.572q9.755,0,15,5.815t5.247,15.952q0,1.566-.073,2.387H189.482a9.7,9.7,0,0,0,3.326,5.255,9.158,9.158,0,0,0,5.764,1.827,12.387,12.387,0,0,0,4.988-1.045,14.06,14.06,0,0,0,4.4-3.056l6.873,6.933a20.267,20.267,0,0,1-7.5,5.33,25.7,25.7,0,0,1-9.94,1.826A23.729,23.729,0,0,1,186.157,53.23Zm5.8-27.284a10.415,10.415,0,0,0-2.77,5.666h15.371a7.8,7.8,0,0,0-2.033-5.628,7.681,7.681,0,0,0-10.568-.038ZM158.851,55.764V34.019a7.884,7.884,0,0,0-1.769-5.435,6.086,6.086,0,0,0-4.789-1.987,6.889,6.889,0,0,0-5.492,2.587,10.133,10.133,0,0,0-2.026,6.561v20.02H131.657V34.019a7.888,7.888,0,0,0-1.769-5.435A6.088,6.088,0,0,0,125.1,26.6a6.994,6.994,0,0,0-5.527,2.587,10,10,0,0,0-2.065,6.561v20.02H104.465V14.675h13.043v7.2a14.224,14.224,0,0,1,5.343-5.361,15.347,15.347,0,0,1,7.628-1.837,14.254,14.254,0,0,1,8.328,2.4,13.035,13.035,0,0,1,4.938,6.673,14.523,14.523,0,0,1,5.489-6.786,15.325,15.325,0,0,1,8.438-2.286,13.516,13.516,0,0,1,10.391,4.2q3.9,4.2,3.9,11.322V55.764Zm-71.439,0v-5.1q-3.939,5.1-11.891,5.1-6.275,0-9.887-3.436a11.924,11.924,0,0,1-3.61-9.053,10.8,10.8,0,0,1,3.9-8.868q3.9-3.178,11.2-3.253H87.412v-.443a5.356,5.356,0,0,0-1.934-4.434A8.729,8.729,0,0,0,79.9,24.726a22.194,22.194,0,0,0-5.58.813A32.8,32.8,0,0,0,68.08,27.9L64.5,19.035a50.853,50.853,0,0,1,9.228-3.288,38.667,38.667,0,0,1,9.156-1.072q8.172,0,12.695,3.805t4.6,10.679v26.6Zm-13.2-13.451A4.107,4.107,0,0,0,75.63,45.6a5.794,5.794,0,0,0,3.9,1.22,9.062,9.062,0,0,0,5.106-1.441,6.24,6.24,0,0,0,2.773-3.731V38.175H79.679Q74.207,38.175,74.207,42.313ZM33.58,55.764V15.2H46.928v6.747a14.638,14.638,0,0,1,5.436-5.4,15.276,15.276,0,0,1,7.61-1.874V26.9a19.575,19.575,0,0,0-2.025-.076A12.345,12.345,0,0,0,50.3,29.034a8.483,8.483,0,0,0-3.374,6.035V55.764Zm-28.152,0V26.247H0V17.473H5.428V13.755A12.6,12.6,0,0,1,9.7,3.681,16.214,16.214,0,0,1,20.669,0,24.8,24.8,0,0,1,29.3,1.561L27.585,11.6a15.1,15.1,0,0,0-4.461-1.041,4.766,4.766,0,0,0-3.272,1.115,4.04,4.04,0,0,0-1.263,3.2v2.6H27.51v8.774H18.589V55.764Z" fill="#fff"/>
</svg>
