<svg xmlns="http://www.w3.org/2000/svg" width="47.958" height="42.034" viewBox="0 0 47.958 42.034">
  <g id="chatting" transform="translate(0 -31.622)">
    <path id="Caminho_68" data-name="Caminho 68" d="M33.161,31.622H5.423A5.429,5.429,0,0,0,0,37.045V61.352A1.406,1.406,0,0,0,2.221,62.5l7.725-5.511a3.781,3.781,0,0,1,2.207-.706h16.99a5.429,5.429,0,0,0,5.423-5.423V33.027A1.406,1.406,0,0,0,33.161,31.622Zm-6.825,17.02H10.1a1.405,1.405,0,1,1,0-2.81H26.337a1.405,1.405,0,1,1,0,2.81Zm0-6.557H10.1a1.405,1.405,0,0,1,0-2.81H26.337a1.405,1.405,0,0,1,0,2.81Z" fill="#f7f7f7"/>
    <path id="Caminho_69" data-name="Caminho 69" d="M177.536,153.386v24.306a1.406,1.406,0,0,1-2.221,1.144l-7.725-5.51a3.781,3.781,0,0,0-2.207-.706H148.393a5.43,5.43,0,0,1-5.423-5.424v-2.664h15.751a8.243,8.243,0,0,0,8.233-8.233v-8.336h5.158A5.43,5.43,0,0,1,177.536,153.386Z" transform="translate(-129.578 -105.443)" fill="#f7f7f7"/>
  </g>
</svg>
