<svg xmlns="http://www.w3.org/2000/svg" width="33.333" height="50" viewBox="0 0 33.333 50">
  <g id="app" transform="translate(-85.333)">
    <g id="Grupo_12" data-name="Grupo 12" transform="translate(85.333)">
      <g id="Grupo_11" data-name="Grupo 11">
        <path id="Caminho_62" data-name="Caminho 62" d="M150.375,136.332h6.25a1.041,1.041,0,0,0,1.042-1.042v-6.25A1.041,1.041,0,0,0,156.625,128h-6.25a1.041,1.041,0,0,0-1.042,1.042v6.25A1.041,1.041,0,0,0,150.375,136.332Z" transform="translate(-143.083 -115.499)" fill="#f7f7f7"/>
        <path id="Caminho_63" data-name="Caminho 63" d="M277.333,135.292a1.041,1.041,0,0,0,1.042,1.042h6.25a1.041,1.041,0,0,0,1.042-1.042v-6.25A1.041,1.041,0,0,0,284.625,128h-6.25a1.041,1.041,0,0,0-1.042,1.042Z" transform="translate(-258.583 -115.5)" fill="#f7f7f7"/>
        <path id="Caminho_64" data-name="Caminho 64" d="M150.375,264.332h6.25a1.041,1.041,0,0,0,1.042-1.042v-6.25A1.041,1.041,0,0,0,156.625,256h-6.25a1.041,1.041,0,0,0-1.042,1.042v6.25A1.041,1.041,0,0,0,150.375,264.332Z" transform="translate(-143.083 -230.999)" fill="#f7f7f7"/>
        <path id="Caminho_65" data-name="Caminho 65" d="M284.625,256h-6.25a1.041,1.041,0,0,0-1.042,1.042v6.25a1.041,1.041,0,0,0,1.042,1.042h6.25a1.041,1.041,0,0,0,1.042-1.042v-6.25A1.041,1.041,0,0,0,284.625,256Z" transform="translate(-258.583 -231)" fill="#f7f7f7"/>
        <path id="Caminho_66" data-name="Caminho 66" d="M235.708,66.082h2.083a1.042,1.042,0,0,0,0-2.083h-2.083a1.042,1.042,0,0,0,0,2.083Z" transform="translate(-220.083 -57.749)" fill="#f7f7f7"/>
        <path id="Caminho_67" data-name="Caminho 67" d="M114.5,0h-25a4.171,4.171,0,0,0-4.167,4.167V45.833A4.171,4.171,0,0,0,89.5,50h25a4.171,4.171,0,0,0,4.167-4.167V4.167A4.171,4.171,0,0,0,114.5,0Zm-9.375,45.833h-6.25a1.042,1.042,0,1,1,0-2.083h6.25a1.042,1.042,0,1,1,0,2.083Zm9.375-6.25h-25V4.167h25Z" transform="translate(-85.333)" fill="#f7f7f7"/>
        <circle id="Elipse_2" data-name="Elipse 2" cx="1.042" cy="1.042" r="1.042" transform="translate(25 6.25)" fill="#f7f7f7"/>
      </g>
    </g>
  </g>
</svg>
